<svg xmlns="http://www.w3.org/2000/svg" xmlns:xlink="http://www.w3.org/1999/xlink" width="500" zoomAndPan="magnify" viewBox="0 0 375 374.999991" height="500" preserveAspectRatio="xMidYMid meet" version="1.0"><defs><g/></defs><g fill="#ffffff" fill-opacity="1"><g transform="translate(159.4664, 194.193789)"><g><path d="M 39.300781 -61.351562 L 29.40625 -33.738281 L 14.703125 -74.832031 C 14.609375 -75.207031 14.230469 -75.394531 13.761719 -75.394531 L 0.941406 -75.394531 C 0.1875 -75.394531 -0.1875 -74.832031 0.09375 -74.265625 L 28.460938 -0.472656 C 28.839844 0.1875 29.96875 0.1875 30.253906 -0.472656 L 53.8125 -61.351562 Z M 39.300781 -61.351562 "/></g></g></g><g fill="#ffffff" fill-opacity="1"><g transform="translate(132.089878, 226.879468)"><g><path d="M 20.015625 -18.53125 L 11.984375 0 L 7.75 0 L -0.234375 -18.53125 L 4.390625 -18.53125 L 10.03125 -5.296875 L 15.75 -18.53125 Z M 20.015625 -18.53125 "/></g></g></g><g fill="#ffffff" fill-opacity="1"><g transform="translate(157.548168, 226.879468)"><g><path d="M 2.203125 -18.53125 L 6.484375 -18.53125 L 6.484375 0 L 2.203125 0 Z M 2.203125 -18.53125 "/></g></g></g><g fill="#ffffff" fill-opacity="1"><g transform="translate(171.945813, 226.879468)"><g><path d="M 13.875 0 L 9.390625 -6.4375 L 5 0 L 0.078125 0 L 6.9375 -9.421875 L 0.421875 -18.53125 L 5.296875 -18.53125 L 9.5625 -12.515625 L 13.734375 -18.53125 L 18.375 -18.53125 L 11.90625 -9.578125 L 18.8125 0 Z M 13.875 0 "/></g></g></g><g fill="#ffffff" fill-opacity="1"><g transform="translate(196.557355, 226.879468)"><g><path d="M 16.546875 -3.4375 L 16.546875 0 L 2.203125 0 L 2.203125 -18.53125 L 16.203125 -18.53125 L 16.203125 -15.09375 L 6.453125 -15.09375 L 6.453125 -11.0625 L 15.0625 -11.0625 L 15.0625 -7.734375 L 6.453125 -7.734375 L 6.453125 -3.4375 Z M 16.546875 -3.4375 "/></g></g></g><g fill="#ffffff" fill-opacity="1"><g transform="translate(220.03108, 226.879468)"><g><path d="M 19.1875 -18.53125 L 19.1875 0 L 15.671875 0 L 6.4375 -11.25 L 6.4375 0 L 2.203125 0 L 2.203125 -18.53125 L 5.75 -18.53125 L 14.953125 -7.28125 L 14.953125 -18.53125 Z M 19.1875 -18.53125 "/></g></g></g><g fill="#ffffff" fill-opacity="1"><g transform="translate(154.06501, 248.488109)"><g><path d="M 2.6875 -6.265625 L 2.6875 -4.234375 L 6.265625 -4.234375 L 6.265625 -2.8125 L 2.6875 -2.8125 L 2.6875 0 L 0.90625 0 L 0.90625 -7.703125 L 6.734375 -7.703125 L 6.734375 -6.265625 Z M 2.6875 -6.265625 "/></g></g></g><g fill="#ffffff" fill-opacity="1"><g transform="translate(163.465043, 248.488109)"><g><path d="M 5.984375 -1.65625 L 2.40625 -1.65625 L 1.734375 0 L -0.09375 0 L 3.328125 -7.703125 L 5.09375 -7.703125 L 8.53125 0 L 6.671875 0 Z M 5.421875 -3 L 4.203125 -5.953125 L 2.984375 -3 Z M 5.421875 -3 "/></g></g></g><g fill="#ffffff" fill-opacity="1"><g transform="translate(174.261095, 248.488109)"><g><path d="M 3.4375 0.125 C 2.832031 0.125 2.242188 0.046875 1.671875 -0.109375 C 1.109375 -0.273438 0.65625 -0.492188 0.3125 -0.765625 L 0.90625 -2.09375 C 1.238281 -1.851562 1.628906 -1.660156 2.078125 -1.515625 C 2.535156 -1.367188 2.992188 -1.296875 3.453125 -1.296875 C 3.960938 -1.296875 4.335938 -1.367188 4.578125 -1.515625 C 4.816406 -1.671875 4.9375 -1.875 4.9375 -2.125 C 4.9375 -2.300781 4.863281 -2.453125 4.71875 -2.578125 C 4.582031 -2.703125 4.398438 -2.800781 4.171875 -2.875 C 3.953125 -2.945312 3.648438 -3.023438 3.265625 -3.109375 C 2.679688 -3.253906 2.203125 -3.394531 1.828125 -3.53125 C 1.453125 -3.664062 1.128906 -3.882812 0.859375 -4.1875 C 0.597656 -4.5 0.46875 -4.914062 0.46875 -5.4375 C 0.46875 -5.882812 0.585938 -6.285156 0.828125 -6.640625 C 1.066406 -7.003906 1.429688 -7.289062 1.921875 -7.5 C 2.410156 -7.71875 3.003906 -7.828125 3.703125 -7.828125 C 4.191406 -7.828125 4.671875 -7.769531 5.140625 -7.65625 C 5.617188 -7.539062 6.03125 -7.375 6.375 -7.15625 L 5.828125 -5.796875 C 5.117188 -6.203125 4.410156 -6.40625 3.703125 -6.40625 C 3.203125 -6.40625 2.832031 -6.320312 2.59375 -6.15625 C 2.351562 -6 2.234375 -5.785156 2.234375 -5.515625 C 2.234375 -5.253906 2.367188 -5.054688 2.640625 -4.921875 C 2.921875 -4.796875 3.34375 -4.671875 3.90625 -4.546875 C 4.488281 -4.410156 4.96875 -4.269531 5.34375 -4.125 C 5.71875 -3.988281 6.035156 -3.769531 6.296875 -3.46875 C 6.566406 -3.175781 6.703125 -2.769531 6.703125 -2.25 C 6.703125 -1.8125 6.578125 -1.410156 6.328125 -1.046875 C 6.085938 -0.679688 5.722656 -0.394531 5.234375 -0.1875 C 4.742188 0.0195312 4.144531 0.125 3.4375 0.125 Z M 3.4375 0.125 "/></g></g></g><g fill="#ffffff" fill-opacity="1"><g transform="translate(183.650142, 248.488109)"><g><path d="M 7.96875 -7.703125 L 7.96875 0 L 6.1875 0 L 6.1875 -3.15625 L 2.6875 -3.15625 L 2.6875 0 L 0.90625 0 L 0.90625 -7.703125 L 2.6875 -7.703125 L 2.6875 -4.65625 L 6.1875 -4.65625 L 6.1875 -7.703125 Z M 7.96875 -7.703125 "/></g></g></g><g fill="#ffffff" fill-opacity="1"><g transform="translate(194.907872, 248.488109)"><g><path d="M 0.90625 -7.703125 L 2.6875 -7.703125 L 2.6875 0 L 0.90625 0 Z M 0.90625 -7.703125 "/></g></g></g><g fill="#ffffff" fill-opacity="1"><g transform="translate(200.889326, 248.488109)"><g><path d="M 4.640625 0.125 C 3.835938 0.125 3.113281 -0.046875 2.46875 -0.390625 C 1.832031 -0.734375 1.332031 -1.207031 0.96875 -1.8125 C 0.601562 -2.414062 0.421875 -3.09375 0.421875 -3.84375 C 0.421875 -4.601562 0.601562 -5.285156 0.96875 -5.890625 C 1.332031 -6.492188 1.832031 -6.96875 2.46875 -7.3125 C 3.113281 -7.65625 3.835938 -7.828125 4.640625 -7.828125 C 5.441406 -7.828125 6.160156 -7.65625 6.796875 -7.3125 C 7.429688 -6.96875 7.929688 -6.492188 8.296875 -5.890625 C 8.671875 -5.285156 8.859375 -4.601562 8.859375 -3.84375 C 8.859375 -3.09375 8.671875 -2.414062 8.296875 -1.8125 C 7.929688 -1.207031 7.429688 -0.734375 6.796875 -0.390625 C 6.160156 -0.046875 5.441406 0.125 4.640625 0.125 Z M 4.640625 -1.390625 C 5.097656 -1.390625 5.507812 -1.492188 5.875 -1.703125 C 6.238281 -1.910156 6.523438 -2.203125 6.734375 -2.578125 C 6.941406 -2.953125 7.046875 -3.375 7.046875 -3.84375 C 7.046875 -4.320312 6.941406 -4.75 6.734375 -5.125 C 6.523438 -5.5 6.238281 -5.789062 5.875 -6 C 5.507812 -6.207031 5.097656 -6.3125 4.640625 -6.3125 C 4.179688 -6.3125 3.769531 -6.207031 3.40625 -6 C 3.039062 -5.789062 2.753906 -5.5 2.546875 -5.125 C 2.335938 -4.75 2.234375 -4.320312 2.234375 -3.84375 C 2.234375 -3.375 2.335938 -2.953125 2.546875 -2.578125 C 2.753906 -2.203125 3.039062 -1.910156 3.40625 -1.703125 C 3.769531 -1.492188 4.179688 -1.390625 4.640625 -1.390625 Z M 4.640625 -1.390625 "/></g></g></g><g fill="#ffffff" fill-opacity="1"><g transform="translate(212.54277, 248.488109)"><g><path d="M 7.96875 -7.703125 L 7.96875 0 L 6.515625 0 L 2.671875 -4.671875 L 2.671875 0 L 0.90625 0 L 0.90625 -7.703125 L 2.390625 -7.703125 L 6.21875 -3.03125 L 6.21875 -7.703125 Z M 7.96875 -7.703125 "/></g></g></g><path stroke-linecap="butt" transform="matrix(0.752351, 0, 0, 0.75, 236.776513, 243.66908)" fill="none" stroke-linejoin="miter" d="M 0.00110427 0.998518 L 54.839614 0.998518 " stroke="#ffffff" stroke-width="2" stroke-opacity="1" stroke-miterlimit="4"/><path stroke-linecap="butt" transform="matrix(0.752351, 0, 0, 0.75, 97.58107, 243.66908)" fill="none" stroke-linejoin="miter" d="M 0.00127754 0.998518 L 54.839787 0.998518 " stroke="#ffffff" stroke-width="2" stroke-opacity="1" stroke-miterlimit="4"/><g fill="#ffffff" fill-opacity="1"><g transform="translate(199.122662, 192.379471)"><g><path d="M 7.796875 0.21875 C 6.453125 0.21875 5.238281 -0.0664062 4.15625 -0.640625 C 3.082031 -1.222656 2.238281 -2.019531 1.625 -3.03125 C 1.019531 -4.050781 0.71875 -5.195312 0.71875 -6.46875 C 0.71875 -7.726562 1.019531 -8.863281 1.625 -9.875 C 2.238281 -10.894531 3.082031 -11.695312 4.15625 -12.28125 C 5.238281 -12.863281 6.453125 -13.15625 7.796875 -13.15625 C 9.140625 -13.15625 10.34375 -12.863281 11.40625 -12.28125 C 12.476562 -11.695312 13.320312 -10.894531 13.9375 -9.875 C 14.5625 -8.863281 14.875 -7.726562 14.875 -6.46875 C 14.875 -5.195312 14.5625 -4.050781 13.9375 -3.03125 C 13.320312 -2.019531 12.476562 -1.222656 11.40625 -0.640625 C 10.34375 -0.0664062 9.140625 0.21875 7.796875 0.21875 Z M 7.796875 -2.328125 C 8.554688 -2.328125 9.242188 -2.5 9.859375 -2.84375 C 10.472656 -3.195312 10.957031 -3.6875 11.3125 -4.3125 C 11.664062 -4.945312 11.84375 -5.664062 11.84375 -6.46875 C 11.84375 -7.269531 11.664062 -7.984375 11.3125 -8.609375 C 10.957031 -9.234375 10.472656 -9.71875 9.859375 -10.0625 C 9.242188 -10.414062 8.554688 -10.59375 7.796875 -10.59375 C 7.035156 -10.59375 6.34375 -10.414062 5.71875 -10.0625 C 5.101562 -9.71875 4.617188 -9.234375 4.265625 -8.609375 C 3.921875 -7.984375 3.75 -7.269531 3.75 -6.46875 C 3.75 -5.664062 3.921875 -4.945312 4.265625 -4.3125 C 4.617188 -3.6875 5.101562 -3.195312 5.71875 -2.84375 C 6.34375 -2.5 7.035156 -2.328125 7.796875 -2.328125 Z M 7.796875 -2.328125 "/></g></g></g><g fill="#ffffff" fill-opacity="1"><g transform="translate(218.70084, 192.379471)"><g><path d="M 10.265625 -6.671875 L 13 -6.671875 L 13 -1.421875 C 12.300781 -0.890625 11.488281 -0.484375 10.5625 -0.203125 C 9.632812 0.078125 8.707031 0.21875 7.78125 0.21875 C 6.4375 0.21875 5.226562 -0.0664062 4.15625 -0.640625 C 3.082031 -1.210938 2.238281 -2.003906 1.625 -3.015625 C 1.019531 -4.035156 0.71875 -5.1875 0.71875 -6.46875 C 0.71875 -7.75 1.019531 -8.894531 1.625 -9.90625 C 2.238281 -10.925781 3.085938 -11.722656 4.171875 -12.296875 C 5.253906 -12.867188 6.472656 -13.15625 7.828125 -13.15625 C 8.960938 -13.15625 9.988281 -12.960938 10.90625 -12.578125 C 11.832031 -12.191406 12.609375 -11.640625 13.234375 -10.921875 L 11.328125 -9.140625 C 10.398438 -10.109375 9.285156 -10.59375 7.984375 -10.59375 C 7.148438 -10.59375 6.414062 -10.421875 5.78125 -10.078125 C 5.144531 -9.734375 4.644531 -9.25 4.28125 -8.625 C 3.925781 -8 3.75 -7.28125 3.75 -6.46875 C 3.75 -5.664062 3.925781 -4.945312 4.28125 -4.3125 C 4.644531 -3.6875 5.140625 -3.195312 5.765625 -2.84375 C 6.398438 -2.5 7.125 -2.328125 7.9375 -2.328125 C 8.800781 -2.328125 9.578125 -2.507812 10.265625 -2.875 Z M 10.265625 -6.671875 "/></g></g></g><g fill="#ffffff" fill-opacity="1"><g transform="translate(236.93079, 192.379471)"><g><path d="M 7.28125 0.21875 C 5.425781 0.21875 3.984375 -0.289062 2.953125 -1.3125 C 1.929688 -2.332031 1.421875 -3.789062 1.421875 -5.6875 L 1.421875 -12.921875 L 4.40625 -12.921875 L 4.40625 -5.796875 C 4.40625 -3.484375 5.367188 -2.328125 7.296875 -2.328125 C 8.234375 -2.328125 8.945312 -2.601562 9.4375 -3.15625 C 9.925781 -3.71875 10.171875 -4.597656 10.171875 -5.796875 L 10.171875 -12.921875 L 13.125 -12.921875 L 13.125 -5.6875 C 13.125 -3.789062 12.609375 -2.332031 11.578125 -1.3125 C 10.554688 -0.289062 9.125 0.21875 7.28125 0.21875 Z M 7.28125 0.21875 "/></g></g></g><g fill="#ffffff" fill-opacity="1"><g transform="translate(255.474718, 192.379471)"><g><path d="M 11.546875 -2.40625 L 11.546875 0 L 1.53125 0 L 1.53125 -12.921875 L 11.296875 -12.921875 L 11.296875 -10.53125 L 4.5 -10.53125 L 4.5 -7.71875 L 10.515625 -7.71875 L 10.515625 -5.390625 L 4.5 -5.390625 L 4.5 -2.40625 Z M 11.546875 -2.40625 "/></g></g></g></svg>